<svg id="chakra1" enable-background="new 0 0 300 300" height="512" viewBox="0 0 300 300" width="512" xmlns="http://www.w3.org/2000/svg"><path d="m244 52c2.209 0 4-1.791 4-4v-12c0-2.209-1.791-4-4-4s-4 1.791-4 4v12c0 2.209 1.791 4 4 4z"/><path d="m244 60c-2.209 0-4 1.791-4 4v12c0 2.209 1.791 4 4 4s4-1.791 4-4v-12c0-2.209-1.791-4-4-4z"/><path d="m224 60h12c2.209 0 4-1.791 4-4s-1.791-4-4-4h-12c-2.209 0-4 1.791-4 4s1.791 4 4 4z"/><path d="m264 52h-12c-2.209 0-4 1.791-4 4s1.791 4 4 4h12c2.209 0 4-1.791 4-4s-1.791-4-4-4z"/><circle cx="204" cy="104" r="4"/><circle cx="208" cy="256" r="4"/><circle cx="52" cy="144" r="4"/><path d="m46 48c-7.72 0-14 6.28-14 14s6.28 14 14 14 14-6.28 14-14-6.28-14-14-14zm0 20c-3.309 0-6-2.691-6-6s2.691-6 6-6 6 2.691 6 6-2.691 6-6 6z"/><path d="m250 224c-7.72 0-14 6.28-14 14s6.28 14 14 14 14-6.28 14-14-6.28-14-14-14zm0 20c-3.309 0-6-2.691-6-6s2.691-6 6-6 6 2.691 6 6-2.691 6-6 6z"/><path d="m217.756 135.94c-6.549-1.629-13.352.841-17.329 6.295l-24.427 33.492v-95.727c0-8.822-7.178-16-16-16-2.916 0-5.643.797-8 2.165v-2.165c0-8.822-7.178-16-16-16-8.223 0-15.011 6.237-15.896 14.228-2.38-1.406-5.145-2.228-8.104-2.228-8.822 0-16 7.178-16 16v2.165c-2.357-1.368-5.084-2.165-8-2.165-8.822 0-16 7.178-16 16v140.306c0 19.682 16.085 35.694 35.855 35.694h38.137c18.56 0 35.709-10.776 43.69-27.452l38.984-81.451c2.151-4.496 2.167-9.66.043-14.169s-6.116-7.785-10.953-8.988zm3.694 19.703-38.984 81.452c-6.659 13.914-20.976 22.905-36.474 22.905h-38.137c-15.359 0-27.855-12.424-27.855-27.694v-140.306c0-4.411 3.589-8 8-8s8 3.589 8 8v44c0 2.209 1.791 4 4 4s4-1.791 4-4v-44-16c0-4.411 3.589-8 8-8s8 3.589 8 8v60c0 2.209 1.791 4 4 4s4-1.791 4-4v-60-12c0-4.411 3.589-8 8-8s8 3.589 8 8v16 64c0 2.209 1.791 4 4 4s4-1.791 4-4v-64c0-4.411 3.589-8 8-8s8 3.589 8 8v108c0 1.731 1.114 3.267 2.761 3.803 1.646.535 3.451-.048 4.471-1.446l31.658-43.408c2.051-2.811 5.559-4.087 8.935-3.246 2.494.62 4.553 2.309 5.648 4.634s1.087 4.988-.023 7.306z"/><path d="m126 179.556c-17.994 0-32.318 15.068-32.919 15.709-1.441 1.539-1.441 3.931 0 5.47.601.641 14.925 15.709 32.919 15.709 17.993 0 32.318-15.068 32.919-15.709 1.441-1.539 1.441-3.931 0-5.47-.601-.641-14.926-15.709-32.919-15.709zm0 24.444c-3.309 0-6-2.691-6-6s2.691-6 6-6 6 2.691 6 6-2.691 6-6 6zm-11.53-13.924c-1.555 2.255-2.47 4.983-2.47 7.924 0 2.93.909 5.651 2.454 7.901-5.366-2.269-9.833-5.581-12.577-7.908 2.742-2.333 7.21-5.651 12.593-7.917zm23.06 15.848c1.555-2.255 2.47-4.983 2.47-7.924 0-2.93-.908-5.651-2.453-7.901 5.365 2.269 9.832 5.58 12.576 7.908-2.742 2.333-7.21 5.651-12.593 7.917z"/></svg>