<?xml version="1.0" standalone="no"?><!DOCTYPE svg PUBLIC "-//W3C//DTD SVG 1.1//EN" "http://www.w3.org/Graphics/SVG/1.1/DTD/svg11.dtd"><svg width="100%" height="100%" viewBox="0 0 428 61" version="1.1" xmlns="http://www.w3.org/2000/svg" xmlns:xlink="http://www.w3.org/1999/xlink" xml:space="preserve" style="fill-rule:evenodd;clip-rule:evenodd;stroke-linejoin:round;stroke-miterlimit:1.41421;"><g id="Layer1"><g id="Isolation Mode"><path d="M164.247,59.812c-0.324,0 -0.625,-0.206 -0.73,-0.531l-18.699,-57.864c-0.13,-0.403 0.091,-0.835 0.495,-0.966c0.403,-0.127 0.836,0.091 0.966,0.495l18.698,57.863c0.13,0.403 -0.091,0.836 -0.494,0.966c-0.078,0.025 -0.158,0.037 -0.236,0.037M156.191,59.812c-0.324,0 -0.625,-0.206 -0.73,-0.53l-4.576,-14.094l-16.495,0l-4.524,14.092c-0.129,0.403 -0.562,0.627 -0.965,0.495c-0.403,-0.129 -0.625,-0.561 -0.495,-0.965l4.865,-15.157l18.728,0l4.921,15.155c0.131,0.403 -0.089,0.836 -0.493,0.967c-0.078,0.025 -0.159,0.037 -0.236,0.037M121.038,59.812c-0.078,0 -0.157,-0.012 -0.236,-0.037c-0.403,-0.13 -0.624,-0.562 -0.494,-0.965l18.665,-57.861c0.131,-0.403 0.558,-0.624 0.966,-0.495c0.402,0.13 0.624,0.562 0.495,0.965l-18.666,57.861c-0.105,0.325 -0.406,0.532 -0.73,0.532M150.017,37.515l-14.773,0l7.367,-22.909l7.406,22.909ZM137.35,35.98l10.558,0l-5.294,-16.373l-5.264,16.373Z" style="fill:#000;fill-rule:nonzero;"/><path d="M57.2705,60.2256c-9.781,0 -17.737,-7.956 -17.737,-17.736l0,-24.752c0,-9.78 7.956,-17.737 17.737,-17.737c9.78,0 17.736,7.957 17.736,17.737l0,24.752c0,9.78 -7.956,17.736 -17.736,17.736M57.2705,1.5356c-8.935,0 -16.203,7.268 -16.203,16.202l0,24.752c0,8.934 7.268,16.202 16.203,16.202c8.934,0 16.202,-7.268 16.202,-16.202l0,-24.752c0,-8.934 -7.268,-16.202 -16.202,-16.202M57.2705,52.5526c-5.55,0 -10.064,-4.514 -10.064,-10.063l0,-24.752c0,-5.55 4.514,-10.064 10.064,-10.064c5.549,0 10.063,4.514 10.063,10.064l0,24.752c0,5.549 -4.514,10.063 -10.063,10.063M57.2705,9.2076c-4.703,0 -8.53,3.827 -8.53,8.53l0,24.752c0,4.703 3.827,8.529 8.53,8.529c4.703,0 8.529,-3.826 8.529,-8.529l0,-24.752c0,-4.703 -3.826,-8.53 -8.529,-8.53" style="fill:#000;fill-rule:nonzero;"/><path d="M369.233,52.5528c-5.549,0 -10.063,-4.514 -10.063,-10.063l0,-41.287c0,-0.423 0.344,-0.767 0.768,-0.767c0.423,0 0.767,0.344 0.767,0.767l0,41.287c0,4.704 3.826,8.528 8.528,8.528c4.704,0 8.53,-3.824 8.53,-8.528l0,-41.287c0,-0.423 0.344,-0.767 0.767,-0.767c0.424,0 0.768,0.344 0.768,0.767l0,41.287c0,5.549 -4.515,10.063 -10.065,10.063" style="fill:#00aa8f;fill-rule:nonzero;"/><path d="M369.233,60.2256c-9.779,0 -17.735,-7.956 -17.735,-17.736l0,-41.287c0,-0.423 0.343,-0.767 0.767,-0.767c0.424,0 0.767,0.344 0.767,0.767l0,41.287c0,8.934 7.267,16.202 16.201,16.202c8.935,0 16.203,-7.268 16.203,-16.202l0,-41.287c0,-0.423 0.343,-0.767 0.767,-0.767c0.424,0 0.767,0.344 0.767,0.767l0,41.287c0,9.78 -7.956,17.736 -17.737,17.736" style="fill:#00aa8f;fill-rule:nonzero;"/><path d="M189.915,52.5528c-5.549,0 -10.063,-4.514 -10.063,-10.063l0,-24.751c0,-5.551 4.514,-10.066 10.063,-10.066c5.549,0 10.063,4.515 10.063,10.066l0,3.949c0,0.425 -0.343,0.767 -0.767,0.767c-0.423,0 -0.767,-0.342 -0.767,-0.767l0,-3.949c0,-4.705 -3.826,-8.531 -8.529,-8.531c-4.702,0 -8.529,3.826 -8.529,8.531l0,24.751c0,4.704 3.827,8.528 8.529,8.528c4.703,0 8.529,-3.824 8.529,-8.528l0,-3.923c0,-0.425 0.344,-0.769 0.767,-0.769c0.424,0 0.767,0.344 0.767,0.769l0,3.923c0,5.549 -4.514,10.063 -10.063,10.063" style="fill:#00aa8f;fill-rule:nonzero;"/><path d="M189.915,60.2256c-9.78,0 -17.736,-7.956 -17.736,-17.736l0,-24.752c0,-9.78 7.956,-17.737 17.736,-17.737c9.78,0 17.736,7.957 17.736,17.737l0,3.95c0,0.424 -0.343,0.768 -0.767,0.768c-0.424,0 -0.767,-0.344 -0.767,-0.768l0,-3.95c0,-8.934 -7.268,-16.202 -16.202,-16.202c-8.934,0 -16.202,7.268 -16.202,16.202l0,24.752c0,8.934 7.268,16.202 16.202,16.202c8.934,0 16.202,-7.268 16.202,-16.202l0,-3.924c0,-0.423 0.343,-0.767 0.767,-0.767c0.424,0 0.767,0.344 0.767,0.767l0,3.924c0,9.78 -7.956,17.736 -17.736,17.736" style="fill:#00aa8f;fill-rule:nonzero;"/><path d="M100.147,60.2256c-9.78,0 -17.736,-7.956 -17.736,-17.736l0,-24.752c0,-9.78 7.956,-17.737 17.736,-17.737c9.781,0 17.737,7.957 17.737,17.737c0,0.424 -0.343,0.768 -0.767,0.768c-0.424,0 -0.767,-0.344 -0.767,-0.768c0,-8.934 -7.269,-16.202 -16.203,-16.202c-8.934,0 -16.202,7.268 -16.202,16.202l0,24.752c0,8.934 7.268,16.202 16.202,16.202c8.934,0 16.203,-7.268 16.203,-16.202l0,-14.901l-17.727,0c-0.423,0 -0.767,-0.344 -0.767,-0.767c0,-0.424 0.344,-0.768 0.767,-0.768l18.494,0c0.424,0 0.767,0.344 0.767,0.768l0,15.668c0,9.78 -7.956,17.736 -17.737,17.736" style="fill:#000;fill-rule:nonzero;"/><path d="M100.147,52.5528c-5.549,0 -10.064,-4.514 -10.064,-10.063l0,-24.751c0,-5.551 4.515,-10.066 10.064,-10.066c5.55,0 10.064,4.515 10.064,10.066c0,0.422 -0.343,0.766 -0.767,0.766c-0.423,0 -0.767,-0.344 -0.767,-0.766c0,-4.705 -3.827,-8.531 -8.53,-8.531c-4.703,0 -8.529,3.826 -8.529,8.531l0,24.751c0,4.704 3.826,8.528 8.529,8.528c4.703,0 8.53,-3.824 8.53,-8.528l0,-7.229l-10.054,0c-0.423,0 -0.767,-0.343 -0.767,-0.767c0,-0.423 0.344,-0.767 0.767,-0.767l11.588,0l0,8.763c0,5.549 -4.514,10.063 -10.064,10.063" style="fill:#000;fill-rule:nonzero;"/><path d="M19.4224,27.6133l-11.05,-26.146c-0.165,-0.39 0.017,-0.841 0.408,-1.005c0.391,-0.164 0.841,0.017 1.005,0.408l9.633,22.793l9.586,-22.792c0.166,-0.391 0.618,-0.572 1.005,-0.41c0.391,0.164 0.573,0.615 0.41,1.005l-10.997,26.147Z" style="fill:#000;fill-rule:nonzero;"/><path d="M23.2666,59.7911c-0.424,0 -0.767,-0.344 -0.767,-0.767l0,-22.888l14.817,-35.264c0.164,-0.393 0.614,-0.575 1.005,-0.411c0.391,0.165 0.573,0.614 0.41,1.005l-14.698,34.979l0,22.579c0,0.423 -0.343,0.767 -0.767,0.767" style="fill:#000;fill-rule:nonzero;"/><path d="M15.5942,59.7911c-0.424,0 -0.767,-0.344 -0.767,-0.767l0,-22.574l-14.767,-34.983c-0.164,-0.39 0.019,-0.84 0.408,-1.005c0.39,-0.164 0.841,0.017 1.006,0.409l14.887,35.268l0,22.885c0,0.423 -0.343,0.767 -0.767,0.767" style="fill:#000;fill-rule:nonzero;"/><path d="M253.43,59.812c-0.324,0 -0.625,-0.206 -0.73,-0.531l-18.699,-57.864c-0.13,-0.403 0.091,-0.835 0.495,-0.966c0.402,-0.127 0.836,0.091 0.966,0.495l18.698,57.863c0.13,0.403 -0.091,0.836 -0.494,0.966c-0.078,0.025 -0.158,0.037 -0.236,0.037M245.374,59.812c-0.324,0 -0.625,-0.206 -0.73,-0.53l-4.577,-14.094l-16.494,0l-4.524,14.092c-0.129,0.403 -0.561,0.627 -0.965,0.495c-0.403,-0.129 -0.625,-0.561 -0.495,-0.965l4.865,-15.157l18.728,0l4.921,15.155c0.131,0.403 -0.089,0.836 -0.493,0.967c-0.079,0.025 -0.159,0.037 -0.236,0.037M210.221,59.812c-0.078,0 -0.157,-0.012 -0.236,-0.037c-0.403,-0.13 -0.624,-0.562 -0.494,-0.965l18.657,-57.864c0.13,-0.403 0.558,-0.623 0.966,-0.495c0.402,0.131 0.624,0.563 0.494,0.966l-18.657,57.863c-0.105,0.325 -0.406,0.532 -0.73,0.532M239.199,37.515l-14.772,0l7.366,-22.909l7.406,22.909ZM226.533,35.98l10.558,0l-5.294,-16.373l-5.264,16.373Z" style="fill:#00aa8f;fill-rule:nonzero;"/><path d="M260.293,59.7911c-0.424,0 -0.767,-0.344 -0.767,-0.767l0,-57.821c0,-0.423 0.343,-0.767 0.767,-0.767c0.424,0 0.767,0.344 0.767,0.767l0,57.821c0,0.423 -0.343,0.767 -0.767,0.767" style="fill:#00aa8f;fill-rule:nonzero;"/><path d="M281.232,32.0635l-15.169,-30.583c-0.179,-0.384 -0.014,-0.841 0.37,-1.02c0.387,-0.181 0.84,-0.014 1.021,0.371l13.774,27.605l13.711,-27.602c0.179,-0.383 0.633,-0.55 1.019,-0.371c0.385,0.179 0.551,0.635 0.372,1.019l-15.098,30.581Z" style="fill:#00aa8f;fill-rule:nonzero;"/><path d="M302.101,59.7911c-0.424,0 -0.767,-0.344 -0.767,-0.767l0,-57.821c0,-0.423 0.343,-0.767 0.767,-0.767c0.424,0 0.767,0.344 0.767,0.767l0,57.821c0,0.423 -0.343,0.767 -0.767,0.767" style="fill:#00aa8f;fill-rule:nonzero;"/><path d="M294.429,59.7911c-0.424,0 -0.767,-0.344 -0.767,-0.767l0,-33.615l-8.777,16.891c-0.178,0.383 -0.633,0.551 -1.019,0.372c-0.385,-0.179 -0.551,-0.635 -0.372,-1.019l11.702,-23.179l0,40.55c0,0.423 -0.343,0.767 -0.767,0.767" style="fill:#00aa8f;fill-rule:nonzero;"/><path d="M267.966,59.7911c-0.424,0 -0.767,-0.344 -0.767,-0.767l0,-40.615l11.788,23.248c0.178,0.384 0.014,0.841 -0.371,1.02c-0.387,0.183 -0.84,0.014 -1.02,-0.369l-8.863,-16.997l0,33.713c0,0.423 -0.343,0.767 -0.767,0.767" style="fill:#00aa8f;fill-rule:nonzero;"/><path d="M320.713,59.7911c-0.424,0 -0.767,-0.344 -0.767,-0.767l0,-24.862l8.775,0c8.876,0 16.097,-7.221 16.097,-16.096c0,-8.875 -7.221,-16.096 -16.097,-16.096l-8.008,0c-0.424,0 -0.767,-0.343 -0.767,-0.767c0,-0.423 0.343,-0.767 0.767,-0.767l8.008,0c9.722,0 17.632,7.909 17.632,17.63c0,9.722 -7.91,17.631 -17.632,17.631l-7.241,0l0,23.327c0,0.423 -0.343,0.767 -0.767,0.767M313.04,59.7911c-0.423,0 -0.767,-0.344 -0.767,-0.767l0,-57.821c0,-0.423 0.344,-0.767 0.767,-0.767c0.424,0 0.767,0.344 0.767,0.767l0,57.821c0,0.423 -0.343,0.767 -0.767,0.767M328.721,28.0241l-8.775,0l0,-19.915l8.775,0c5.491,0 9.959,4.466 9.959,9.957c0,5.491 -4.468,9.958 -9.959,9.958M321.48,26.4891l7.241,0c4.645,0 8.424,-3.778 8.424,-8.423c0,-4.644 -3.779,-8.423 -8.424,-8.423l-7.241,0l0,16.846Z" style="fill:#00aa8f;fill-rule:nonzero;"/><path d="M410.742,60.2266c-10.109,0 -17.443,-7.294 -17.443,-17.345c0,-0.424 0.343,-0.768 0.767,-0.768c0.424,0 0.767,0.344 0.767,0.768c0,9.162 6.69,15.811 15.909,15.811c9.67,0 15.678,-5.936 15.678,-15.491c0,-9.581 -8.156,-15.058 -14.71,-18.262c-6.182,-3.021 -9.971,-5.079 -9.971,-9.167c0,-5.979 4.764,-8.099 8.845,-8.099c2.055,0 8.758,0.555 8.758,7.702c0,0.423 -0.343,0.767 -0.767,0.767c-0.423,0 -0.768,-0.344 -0.768,-0.767c0,-5.367 -4.525,-6.168 -7.223,-6.168c-1.714,0 -7.311,0.473 -7.311,6.565c0,3.175 3.461,5.027 9.11,7.788c6.938,3.392 15.572,9.102 15.572,19.641c0,10.502 -6.596,17.025 -17.213,17.025" style="fill:#00aa8f;fill-rule:nonzero;"/><path d="M410.742,52.5547c-5.844,0 -9.772,-3.887 -9.772,-9.673c0,-0.424 0.345,-0.767 0.769,-0.767c0.423,0 0.766,0.343 0.766,0.767c0,4.868 3.31,8.139 8.237,8.139c5.461,0 8.006,-2.486 8.006,-7.819c0,-4.569 -3.761,-8.121 -10.409,-11.37c-6.361,-3.107 -14.273,-6.975 -14.273,-16.06c0,-9.139 6.946,-15.772 16.518,-15.772c9.828,0 16.432,6.178 16.432,15.376c0,0.422 -0.344,0.766 -0.768,0.766c-0.423,0 -0.768,-0.344 -0.768,-0.766c0,-8.279 -5.986,-13.841 -14.896,-13.841c-8.683,0 -14.984,5.987 -14.984,14.237c0,8.128 7.436,11.762 13.412,14.681c6.048,2.956 11.27,6.999 11.27,12.749c0,6.207 -3.211,9.353 -9.54,9.353" style="fill:#00aa8f;fill-rule:nonzero;"/></g></g></svg>